<svg width="1200" height="800" viewBox="0 0 1200 800" xmlns="http://www.w3.org/2000/svg">
  <defs>
    <linearGradient id="bg" x1="0" y1="0" x2="1200" y2="800" gradientUnits="userSpaceOnUse">
      <stop stop-color="#0e2238"/>
      <stop offset="1" stop-color="#2e6076"/>
    </linearGradient>
  </defs>
  <rect width="1200" height="800" rx="36" fill="url(#bg)"/>
  <path d="M70 622L286 390L506 552L744 264L942 416L1130 210" fill="none" stroke="#7dd3fc" stroke-width="12" stroke-linecap="round" stroke-linejoin="round"/>
  <g fill="#f3fbff" font-family="Segoe UI, Arial, sans-serif" font-size="28" font-weight="700" text-anchor="middle">
    <circle cx="70" cy="622" r="38" fill="#f97316"/>
    <text x="70" y="630">1</text>
    <circle cx="286" cy="390" r="38" fill="#f97316"/>
    <text x="286" y="398">2</text>
    <circle cx="506" cy="552" r="38" fill="#f97316"/>
    <text x="506" y="560">3</text>
    <circle cx="744" cy="264" r="38" fill="#f97316"/>
    <text x="744" y="272">4</text>
    <circle cx="942" cy="416" r="38" fill="#f97316"/>
    <text x="942" y="424">5</text>
    <circle cx="1130" cy="210" r="38" fill="#f97316"/>
    <text x="1130" y="218">6</text>
  </g>
  <g fill="#eaf7ff" font-family="Segoe UI, Arial, sans-serif" font-size="24" font-weight="600" text-anchor="middle">
    <text x="70" y="690">Home</text>
    <text x="286" y="458">Planning</text>
    <text x="506" y="620">Gear</text>
    <text x="744" y="332">Skills</text>
    <text x="942" y="484">Safety</text>
    <text x="1130" y="278">Resources</text>
  </g>
  <g fill="#f3fbff" font-family="Segoe UI, Arial, sans-serif">
    <text x="96" y="116" font-size="46" font-weight="700">The site roadmap</text>
    <text x="96" y="164" font-size="28" fill="#bdd6e4">I made this final graphic to tie the pages together and show that each section builds on the one before it.</text>
  </g>
  <path d="M0 720C174 676 345 668 498 693C626 714 778 770 927 770C1034 770 1124 750 1200 718V800H0V720Z" fill="#d8e6ef"/>
</svg>
