<svg width="1200" height="900" viewBox="0 0 1200 900" fill="none" xmlns="http://www.w3.org/2000/svg">
  <defs>
    <linearGradient id="sky" x1="600" y1="0" x2="600" y2="540" gradientUnits="userSpaceOnUse">
      <stop stop-color="#12294B"/>
      <stop offset="0.55" stop-color="#406B8D"/>
      <stop offset="1" stop-color="#E4EEF5"/>
    </linearGradient>
    <linearGradient id="snow" x1="642" y1="378" x2="647" y2="858" gradientUnits="userSpaceOnUse">
      <stop stop-color="#F7FBFF"/>
      <stop offset="1" stop-color="#A9C2D3"/>
    </linearGradient>
    <linearGradient id="ridge" x1="282" y1="343" x2="430" y2="709" gradientUnits="userSpaceOnUse">
      <stop stop-color="#36556E"/>
      <stop offset="1" stop-color="#102131"/>
    </linearGradient>
    <linearGradient id="pine" x1="845" y1="524" x2="845" y2="744" gradientUnits="userSpaceOnUse">
      <stop stop-color="#1B3742"/>
      <stop offset="1" stop-color="#071017"/>
    </linearGradient>
  </defs>
  <rect width="1200" height="900" fill="url(#sky)"/>
  <circle cx="830" cy="168" r="72" fill="#FFDCA8" fill-opacity="0.8"/>
  <path d="M0 488C154 437 293 411 417 411C552 411 685 461 808 461C911 461 1041 421 1200 335V900H0V488Z" fill="#D9E8F2"/>
  <path d="M0 545C152 485 308 476 468 487C623 498 769 548 898 548C1013 548 1114 515 1200 455V900H0V545Z" fill="#C0D6E3"/>
  <path d="M143 526L399 264L653 526H143Z" fill="url(#ridge)"/>
  <path d="M482 528L725 331L975 528H482Z" fill="#274255"/>
  <path d="M400 264L486 334L527 332L399 264Z" fill="#F8FCFF"/>
  <path d="M514 408L613 330L725 431L720 528H482L514 408Z" fill="url(#snow)"/>
  <path d="M128 615C225 595 320 606 412 634C510 664 613 697 732 697C857 697 1039 634 1200 546V900H128V615Z" fill="#EAF2F7"/>
  <path d="M0 691C170 655 322 659 454 696C568 728 687 776 818 776C938 776 1065 746 1200 688V900H0V691Z" fill="#D2E1EB"/>
  <path d="M156 729L267 585L337 729H156Z" fill="url(#pine)"/>
  <path d="M860 746L960 579L1042 746H860Z" fill="url(#pine)"/>
  <path d="M894 746L991 616L1075 746H894Z" fill="#11202B"/>
  <path d="M259 744L343 623L417 744H259Z" fill="#11202B"/>
  <path d="M562 785C594 736 629 689 657 689C680 689 700 707 726 744L742 900H532L562 785Z" fill="#233847"/>
  <path d="M637 673C648 673 659 681 670 698L649 734L627 695C629 684 632 673 637 673Z" fill="#D7633D"/>
  <path d="M603 744L637 695L674 744H603Z" fill="#12212E"/>
  <path d="M630 734H645V792H630V734Z" fill="#13222D"/>
  <path d="M618 789C618 774 626 762 637 762C648 762 657 774 657 789V900H618V789Z" fill="#0C1821"/>
  <path d="M561 829C650 805 727 802 811 829" stroke="#B7CFDC" stroke-width="10" stroke-linecap="round" stroke-opacity="0.8"/>
  <path d="M760 505C840 494 907 468 975 412" stroke="#F7FBFF" stroke-width="8" stroke-linecap="round" stroke-opacity="0.45"/>
</svg>
